<?xml version="1.0" encoding="UTF-8" standalone="no"?>
<!DOCTYPE svg PUBLIC "-//W3C//DTD SVG 1.1//EN" "http://www.w3.org/Graphics/SVG/1.1/DTD/svg11.dtd">
<svg width="100%" height="100%" viewBox="0 0 1956 2270" version="1.1" xmlns="http://www.w3.org/2000/svg" xmlns:xlink="http://www.w3.org/1999/xlink" xml:space="preserve" xmlns:serif="http://www.serif.com/" style="fill-rule:evenodd;clip-rule:evenodd;stroke-linecap:round;stroke-miterlimit:1.5;">
    <g transform="matrix(1,0,0,1,-262.506051,-588.338147)">
        <g>
            <g transform="matrix(1.00904,0,0,1.002358,96.432715,139.339236)">
                <path d="M2040.955,963.506L2040.955,1870.983C2040.955,2121.408 1838.988,2324.722 1590.221,2324.722L676.735,2324.722C427.968,2324.722 226.001,2121.408 226.001,1870.983L226.001,963.506C226.001,713.081 427.968,509.767 676.735,509.767L1590.221,509.767C1838.988,509.767 2040.955,713.081 2040.955,963.506Z" style="fill:none;stroke:rgb(255,185,60);stroke-width:68.36px;"/>
            </g>
            <g transform="matrix(0.702667,0,0,0.702667,435.815199,661.401524)">
                <path d="M1680.856,2493.305C1642.29,2496.812 1654.65,2526.174 1680.812,2528.437C1685.306,2528.825 1771.413,2525.563 1801.055,2599.529C1809.176,2619.793 1626.298,2492.439 1608.979,2506.421C1575.445,2533.493 1670.178,2577.191 1658.995,2585.161C1645.323,2594.905 1636.029,2535.894 1546.478,2528.907C1330.845,2512.083 1242.614,2572.748 1199.215,2484.008C1180.004,2444.727 1135.089,2539.794 1146.542,2505.382C1165.785,2447.568 1179.847,2407.898 1275.699,2469.162C1310.156,2491.185 1303.339,2441.206 1302.891,2437.924C1291.134,2351.733 1343.964,2441.11 1468.391,2470.639C1590.163,2499.538 1653.229,2468.293 1731.679,2495.1C1769.854,2508.145 1720.968,2496.705 1680.856,2493.305Z" style="fill:rgb(57,0,51);"/>
                <path d="M1549.251,939.155C1560.379,938.674 1588.081,934.854 1623.902,949.822C1637.339,955.436 1629.235,1065.186 1628.584,1065.777C1601.487,1090.339 1595.179,1084.889 1551.354,1152.623C1542.49,1166.322 1545.103,1097.069 1492.922,1069.172C1479.205,1061.838 1482.727,1057.586 1495.783,970.239C1499.879,942.832 1508.024,946.632 1549.251,939.155Z" style="fill:rgb(57,0,51);"/>
                <path d="M1355.427,850.724C1347.395,851.169 1267.823,855.58 1257.426,828.202C1254.958,821.702 1322.63,776.254 1402.811,836.753C1405.966,839.133 1403.821,843.926 1355.427,850.724Z" style="fill:rgb(57,0,51);"/>
                <path d="M1742.914,853.299C1694.889,838.937 1685.199,840.822 1692.14,833.38C1747.956,773.536 1822.516,799.879 1822.216,814.22C1821.233,861.276 1749.95,854.016 1742.914,853.299Z" style="fill:rgb(57,0,51);"/>
                <path d="M705.028,2313.106C695.171,2311.933 641.688,2309.204 581.563,2284.127C527.925,2261.755 493.435,2228.396 491.007,2224.856C485.532,2216.87 516.883,1919.516 620.547,1682.133C811.224,1245.499 1073,1277.494 1325.738,1342.137C1475.615,1380.472 1708.588,1603.392 1502.097,1896.678C1442.673,1981.078 1093.938,2325.077 705.028,2313.106Z" style="fill:url(#_Radial1);"/>
                <path d="M1961.9,779.313C1960.675,804.622 1955.278,916.11 1793.106,1047.325C1782.299,1056.069 1642.848,1087.657 1642.484,1050.829C1641.471,948.507 1644.564,945.828 1638.043,942.886C1548.769,902.614 1487.211,945.14 1486.431,948.421C1482.798,963.709 1475.508,1052.274 1468.321,1052.89C1315.349,1066.005 1185.496,988.8 1171.239,969.281C851.806,531.933 1465.343,500.073 1605.37,530.367C1956.418,606.315 1957.241,737.801 1961.9,779.313ZM1777.707,783.371C1768.632,783.682 1714.526,785.538 1675.752,833.267C1663.01,848.951 1738.619,869.278 1774.883,866.905C1830.764,863.25 1874.342,791.788 1777.707,783.371ZM1371.883,861.089C1414.262,850.802 1414.075,851.163 1417.652,849.979C1445.359,840.804 1355.941,776.927 1288.172,797.594C1257.559,806.93 1226.206,818.372 1251.621,840.084C1293.123,875.538 1355.814,862.598 1371.883,861.089Z" style="fill:url(#_Radial2);"/>
                <path d="M142.592,2950.541C138.558,2945.745 128.919,2878.67 137.132,2795.589C150.342,2661.966 215.187,2682.449 211.109,2644.952C210.245,2637.003 205.742,2595.594 220.465,2545.44C299.211,2277.181 397.824,2180.405 378.796,2156.364C322.553,2085.302 360.227,2028.813 435.706,1959.138C450.995,1945.024 425.334,1841.636 499.958,1639.359C618.649,1317.634 877.257,1065.548 878.748,1063.58C884.924,1055.424 849.441,351.948 1513.981,465.809C1572.809,475.888 1572.685,466.438 1632.459,464.527C2090.518,449.887 2048.74,897.879 2028.356,1029.419C2024.782,1052.483 2004.551,1052.936 1997.436,1088.323C1971.458,1217.537 2116.259,1429.052 2187.76,1532.911C2197.898,1547.636 2140.684,1717.31 2066.749,1851.304C2035.832,1907.336 1861.214,2223.802 1516.272,2431.725C1457.598,2467.093 1348.745,2354.019 1299.344,2366.518C1265.654,2375.042 1265.713,2416.238 1265.695,2416.312C1264.189,2422.652 1167.028,2369.542 1130.637,2446.575C1094.176,2523.754 1121.051,2538.316 1104.754,2549.793C937.96,2667.247 735.893,2532.631 731.841,2532.508C722.069,2532.21 531.92,2700.221 495.942,2665.844C386.633,2561.4 404.551,3052.472 353.279,2999.434C311.998,2956.73 306.992,3046.554 254.715,3109.233C212.312,3160.075 216.751,3084.09 259.612,2984.253C347.071,2780.531 404.455,2740.988 371.745,2725.39C360.606,2720.078 269.76,2747.778 266.883,2750.143C256.688,2758.522 152.229,2934.323 142.592,2950.541ZM1051.687,1291.475C899.442,1304.788 602.355,1391.451 486.503,2136.853C473.257,2222.079 473.374,2223.423 478.374,2228.864C565.475,2323.653 809.73,2413.878 1207.154,2165.724C1557.048,1947.248 1613.37,1762.962 1590.838,1615.632C1588.142,1598.004 1539.479,1385.779 1328.577,1330.757C1167.844,1288.823 1074.054,1290.965 1051.687,1291.475ZM1503.376,509.189C1502.795,509.22 1256.593,509.913 1135.989,608.314C972.83,741.437 1149.854,971.546 1181.676,993.091C1313,1082.001 1465.296,1063.504 1468.302,1067.125C1480.631,1081.974 1525.605,1087.629 1535.576,1163.753C1535.787,1165.36 1539.427,1193.151 1548.484,1179.366C1554.715,1169.882 1621.02,1068.962 1643.313,1073.865C1655.357,1076.514 1712.476,1089.076 1796.788,1059.545C1799.546,1058.579 1933.553,945.253 1965.109,838.229C2036.765,595.212 1632.881,507.024 1503.376,509.189Z" style="fill:url(#_Radial3);"/>
            </g>
            <g transform="matrix(0.88053,0,0,0.88053,35.680894,213.053611)">
                <g transform="matrix(0.98,0,0,1,16.379016,0)">
                    <g transform="matrix(246.9351,0,0,246.9351,1983.504457,2862.506113)">
                    </g>
                    <text x="818.951px" y="2862.506px" style="font-family:'GoudyStout', 'Goudy Stout', serif;font-size:246.935px;fill:rgb(255,185,60);">L<tspan x="1109.619px 1400.288px 1662.175px " y="2862.506px 2862.506px 2862.506px ">ENA</tspan></text>
                </g>
            </g>
        </g>
    </g>
    <defs>
        <radialGradient id="_Radial1" cx="0" cy="0" r="1" gradientUnits="userSpaceOnUse" gradientTransform="matrix(1491.467216,-125.072597,125.072597,1491.467216,1037.036755,1789.407219)"><stop offset="0" style="stop-color:rgb(214,130,154);stop-opacity:1"/><stop offset="1" style="stop-color:rgb(53,0,57);stop-opacity:1"/></radialGradient>
        <radialGradient id="_Radial2" cx="0" cy="0" r="1" gradientUnits="userSpaceOnUse" gradientTransform="matrix(1132.321624,0,0,1132.321624,1521.08826,795.12864)"><stop offset="0" style="stop-color:rgb(214,130,154);stop-opacity:1"/><stop offset="1" style="stop-color:rgb(53,0,57);stop-opacity:1"/></radialGradient>
        <radialGradient id="_Radial3" cx="0" cy="0" r="1" gradientUnits="userSpaceOnUse" gradientTransform="matrix(785.166135,-218.613731,218.613731,785.166135,1403.761154,1431.244462)"><stop offset="0" style="stop-color:rgb(255,156,48);stop-opacity:1"/><stop offset="1" style="stop-color:rgb(255,173,173);stop-opacity:1"/></radialGradient>
    </defs>
</svg>
