<?xml version="1.0" encoding="UTF-8" standalone="no"?>
<!DOCTYPE svg PUBLIC "-//W3C//DTD SVG 1.1//EN" "http://www.w3.org/Graphics/SVG/1.1/DTD/svg11.dtd">
<svg width="100%" height="100%" viewBox="0 0 341 341" version="1.1" xmlns="http://www.w3.org/2000/svg" xmlns:xlink="http://www.w3.org/1999/xlink" xml:space="preserve" xmlns:serif="http://www.serif.com/" style="fill-rule:evenodd;clip-rule:evenodd;stroke-linejoin:round;stroke-miterlimit:2;">
    <g transform="matrix(1,0,0,1,-5.066781,-4.804285)">
        <g id="Hintergrund" transform="matrix(1.275236,0,0,1.275236,2.766622,2.894522)">
            <path d="M250.458,238.465C225.975,273.172 181.275,267.328 115.5,267.328C101.218,267.328 17.978,279.321 4.027,203.581C2.243,193.897 1.702,190.958 2.673,80.5C3.142,27.121 47.143,3.445 76.51,2.758C86.831,2.517 185.422,0.211 205.545,4.278C279.508,19.226 267.328,104.47 267.328,115.5C267.328,193.205 270.532,214.981 250.458,238.465ZM27.621,195.495C27.325,68.106 27.976,67.903 31.163,60.366C46.578,23.911 80.396,28.236 89.493,28.244C200.321,28.338 202.75,26.679 215.621,34.229C245.324,51.652 242.408,75.682 242.411,90.5C242.436,202.897 243.429,203.672 235.752,217.632C219.133,247.849 191.915,242.832 129.5,242.832C78.377,242.832 35.473,250.682 27.621,195.495Z" style="fill:white;fill-opacity:0.99;stroke:white;stroke-width:0.78px;"/>
            <path d="M66.298,135.5C74.385,36.607 199.426,54.115 203.546,130.498C208.43,221.055 71.397,233.638 66.298,135.5ZM139.479,91.704C204.947,102.544 181.442,193.556 122.612,178.122C79.61,166.841 76.733,91.059 139.479,91.704Z" style="fill:white;fill-opacity:0.99;stroke:white;stroke-width:0.78px;"/>
            <path d="M205.499,80.69C185.471,78.266 188.204,60.288 193.328,54.358C213.215,31.343 239.554,77.219 205.499,80.69Z" style="fill:white;fill-opacity:0.99;stroke:white;stroke-width:0.78px;"/>
        </g>
    </g>
</svg>
