<?xml version="1.0" encoding="UTF-8" standalone="no"?>
<!DOCTYPE svg PUBLIC "-//W3C//DTD SVG 1.1//EN" "http://www.w3.org/Graphics/SVG/1.1/DTD/svg11.dtd">
<svg width="100%" height="100%" viewBox="0 0 1884 1074" version="1.1" xmlns="http://www.w3.org/2000/svg" xmlns:xlink="http://www.w3.org/1999/xlink" xml:space="preserve" xmlns:serif="http://www.serif.com/" style="fill-rule:evenodd;clip-rule:evenodd;stroke-linecap:round;stroke-linejoin:round;stroke-miterlimit:1.5;">
    <g transform="matrix(1,0,0,1,-750.194095,-679.98384)">
        <g transform="matrix(1,0,0,1,648.727273,-0.818183)">
            <g transform="matrix(0.959563,0,0,1,-68.232717,555.818183)">
                <path d="M439.636,332.182C853.636,687.273 308.727,937.636 863.455,680.727C1418.182,423.818 2149.636,638.182 1413.273,415.636C676.909,193.091 891.273,90 657.273,193.091C423.273,296.182 25.636,-22.909 439.636,332.182Z" style="fill:rgb(216,142,142);"/>
            </g>
            <g transform="matrix(1,0,0,1,-78.727273,555.818183)">
                <path d="M1264.364,125.182C1264.364,125.182 873.273,154.636 1023.818,514.636C1174.364,874.636 755.455,1169.182 1203.818,863.182C1652.182,557.182 1593.273,691.364 1681.636,540C1770,388.636 2043.273,549 1770,378.818C1496.727,208.636 1720.909,243 1496.727,180.818C1272.545,118.636 1264.364,125.182 1264.364,125.182Z" style="fill:rgb(162,210,195);"/>
            </g>
            <g transform="matrix(1,0,0,1,-648.727273,0.818183)">
                <path d="M1883.276,872.831C1838.767,905.933 1786.403,860.115 1838.767,934.733C1891.131,1009.351 1845.312,1060.645 1914.694,1024.525C1984.076,988.406 2003.564,1030.297 2008.874,974.006C2014.185,917.715 2055.927,941.279 2008.874,902.006C1961.821,862.733 1963.131,858.806 1929.094,858.806C1895.058,858.806 1927.785,839.728 1883.276,872.831Z" style="fill:white;"/>
            </g>
            <g transform="matrix(1,0,0,1,-648.727273,0.818183)">
                <path d="M1248.367,903.315C1288.949,975.315 1161.967,974.006 1294.185,976.624C1426.403,979.242 1389.749,1065.642 1436.876,971.388C1484.003,877.133 1529.821,945.765 1484.003,872.831C1438.185,799.897 1503.64,795.969 1406.767,786.806C1309.894,777.642 1317.749,764.551 1279.785,782.879C1241.822,801.206 1215.64,788.115 1222.185,824.769C1228.731,861.424 1207.785,831.315 1248.367,903.315Z" style="fill:white;"/>
            </g>
            <g transform="matrix(1,0,0,1,-648.727273,0.818183)">
                <ellipse cx="1370.112" cy="899.092" rx="54.982" ry="45.756"/>
            </g>
            <g transform="matrix(1,0,0,1,-648.727273,0.818183)">
                <ellipse cx="1942.185" cy="971.09" rx="45.818" ry="44.212"/>
            </g>
            <g transform="matrix(0.960892,0.276924,-0.276924,0.960892,-349.099864,-342.488891)">
                <path d="M1341.312,991.024C1363.919,995.868 1365.792,997.243 1380.585,1034.224C1390.282,1058.466 1390.049,1058.388 1391.058,1060.406C1391.058,1012.395 1378.182,978.696 1421.167,1000.188C1459.767,1019.488 1468.745,1071.866 1464.367,1036.842C1463.176,1027.318 1440.384,1013.449 1443.422,964.842C1444.794,942.88 1602.849,1028.194 1510.185,981.86C1493.323,973.429 1455.325,937.504 1478.767,930.806C1480.991,930.17 1480.829,930.861 1507.567,928.188" style="fill:none;stroke:black;stroke-width:17.61px;"/>
            </g>
            <g transform="matrix(0.99945,-0.033166,0.033166,0.99945,-678.59196,64.888139)">
                <path d="M1921.24,1076.115C1919.792,1050.056 1914.753,1042.067 1940.876,1036.842C1980.283,1028.961 2007.361,1094.916 1994.549,1056.478C1993.574,1053.555 1976.409,1002.058 2001.094,1018.515C2003.821,1020.333 2029.298,1016.908 2074.403,1039.46C2029.827,1002.313 2031.729,995.315 2030.829,989.715L2118.912,989.715C2034.972,978.523 2040.331,965.443 2039.058,963.533C2019.521,934.228 2077.272,937.064 2113.676,933.424" style="fill:none;stroke:black;stroke-width:18.75px;"/>
            </g>
            <g transform="matrix(1,0,0,1,-648.727273,0.818183)">
                <ellipse cx="1166.574" cy="1095.37" rx="54.607" ry="59.01" style="fill:none;stroke:black;stroke-width:18.75px;"/>
            </g>
            <g transform="matrix(1,0,0,1,-742.822205,-18.211875)">
                <g transform="matrix(549.69285,0,0,549.69285,2738.689485,1761.851607)">
                </g>
                <text x="829.527px" y="1761.852px" style="font-family:'Broadway', fantasy;font-size:549.693px;">OOOoo</text>
            </g>
            <g transform="matrix(1,0,0,1,-648.727273,0.818183)">
                <g transform="matrix(136.145469,0,0,136.145469,2295.728253,1219.432188)">
                </g>
                <text x="1797.88px" y="1219.432px" style="font-family:'Broadway', fantasy;font-size:136.145px;">AA<tspan x="2008.148px 2104.008px " y="1219.432px 1219.432px ">aa</tspan>a</text>
            </g>
            <g transform="matrix(0,-1,1,0,-243.775987,2759.505073)">
                <path d="M1634.557,1154.38C1618.777,1172.341 1605.966,1200.649 1605.966,1231.355C1605.966,1262.06 1618.777,1290.368 1634.557,1308.329C1581.958,1308.329 1539.255,1273.838 1539.255,1231.355C1539.255,1188.871 1581.958,1154.38 1634.557,1154.38Z" style="fill:none;stroke:black;stroke-width:18.75px;"/>
            </g>
        </g>
    </g>
</svg>
